<svg aria-hidden="true" width="16" height="16" viewBox="0 0 16 16" fill="none" xmlns="http://www.w3.org/2000/svg">
<path d="M11.1765 12.025C11.4108 12.2594 11.7907 12.2594 12.025 12.025C12.2594 11.7907 12.2594 11.4108 12.025 11.1765L8.84931 8.00078L12.025 4.82505C12.2594 4.59073 12.2594 4.21083 12.025 3.97652C11.7907 3.7422 11.4108 3.7422 11.1765 3.97652L8.00078 7.15225L4.82505 3.97652C4.59073 3.7422 4.21083 3.7422 3.97652 3.97652C3.7422 4.21083 3.7422 4.59073 3.97652 4.82505L7.15225 8.00078L3.97652 11.1765C3.7422 11.4108 3.7422 11.7907 3.97652 12.025C4.21083 12.2594 4.59073 12.2594 4.82505 12.025L8.00078 8.84931L11.1765 12.025Z" fill="currentColor"/>
</svg>
